<?xml version="1.0" standalone="no"?>
<!DOCTYPE svg PUBLIC "-//W3C//DTD SVG 20010904//EN"
 "http://www.w3.org/TR/2001/REC-SVG-20010904/DTD/svg10.dtd">
<svg version="1.0" xmlns="http://www.w3.org/2000/svg"
 width="2400.000000pt" height="2400.000000pt" viewBox="0 0 2400.000000 2400.000000"
 preserveAspectRatio="xMidYMid meet" style="background-color:white">

<g transform="translate(0.000000,2400.000000) scale(0.100000,-0.100000)"
fill="#000000" stroke="none">
<path d="M14381 20523 c-8 -15 -13 -16 -30 -5 -28 16 -47 15 -76 -4 -15 -10
-34 -14 -48 -10 -14 3 -32 0 -43 -8 -13 -10 -23 -11 -32 -4 -9 8 -33 4 -85
-11 -39 -12 -90 -26 -112 -32 -22 -6 -58 -19 -80 -30 -22 -10 -58 -19 -80 -19
-40 0 -91 -15 -132 -38 -12 -7 -32 -12 -45 -12 -27 0 -139 -23 -189 -38 -19
-6 -53 -16 -77 -23 -24 -7 -47 -19 -51 -27 -6 -11 -13 -12 -29 -3 -16 9 -30 8
-59 -3 -21 -7 -65 -19 -98 -26 -33 -6 -82 -17 -110 -25 -27 -8 -67 -17 -88
-21 -20 -3 -40 -10 -43 -15 -3 -5 -18 -9 -33 -9 -15 0 -36 -8 -47 -17 -10 -10
-37 -19 -59 -20 -77 -3 -160 -19 -192 -36 -18 -9 -47 -17 -66 -17 -19 0 -47
-4 -63 -9 -16 -5 -48 -14 -71 -20 -26 -7 -43 -18 -43 -26 0 -17 -16 -20 -25
-5 -8 13 -68 8 -108 -9 -16 -6 -36 -11 -45 -11 -9 0 -30 -7 -46 -15 -15 -8
-46 -15 -67 -15 -21 0 -41 -4 -44 -10 -3 -5 -19 -10 -35 -10 -34 0 -117 -18
-142 -31 -10 -5 -36 -9 -58 -9 -23 0 -54 -7 -70 -15 -17 -9 -40 -13 -53 -10
-12 3 -39 -1 -59 -10 -21 -8 -55 -15 -77 -15 -31 0 -43 -5 -52 -21 -10 -19
-16 -20 -52 -14 -64 12 -113 9 -137 -8 -14 -10 -34 -13 -56 -10 -18 3 -41 2
-51 -3 -15 -6 -75 -15 -338 -50 -22 -3 -49 -9 -60 -14 -11 -5 -42 -11 -70 -14
-27 -3 -61 -7 -75 -9 -14 -2 -33 -5 -42 -5 -10 -1 -18 -8 -18 -16 0 -8 -7 -17
-16 -20 -22 -9 -24 -8 -24 10 0 17 0 17 -150 -7 -36 -6 -79 -15 -96 -20 -17
-5 -65 -9 -108 -9 -50 0 -87 -5 -107 -16 -24 -12 -37 -13 -61 -5 -44 15 -75
14 -82 -5 -3 -8 -10 -13 -14 -10 -18 11 -152 16 -177 6 -19 -7 -31 -7 -40 0
-21 18 -60 15 -92 -8 -26 -18 -31 -30 -37 -82 -8 -69 1 -93 44 -115 17 -9 30
-20 30 -24 0 -5 21 -17 48 -26 26 -9 55 -21 64 -26 10 -5 28 -9 41 -9 13 0 32
-9 42 -20 10 -11 24 -20 32 -20 13 0 25 -5 76 -32 66 -35 139 -68 150 -68 7 0
18 -9 25 -20 7 -11 23 -20 36 -20 14 0 28 -4 31 -10 3 -5 15 -10 26 -10 10 0
19 -4 19 -8 0 -12 56 -42 79 -42 12 0 24 -7 27 -15 3 -8 20 -23 37 -34 60 -39
72 -46 114 -73 23 -16 48 -28 56 -28 8 0 20 -6 26 -14 7 -8 26 -18 42 -21 16
-4 44 -21 62 -39 18 -18 49 -39 69 -45 20 -7 42 -19 48 -27 7 -7 18 -14 24
-14 6 0 28 -14 48 -30 22 -18 43 -28 52 -24 10 4 16 1 16 -9 0 -18 62 -49 83
-41 9 3 16 -3 20 -15 3 -12 13 -21 24 -21 10 0 37 -18 60 -39 23 -22 58 -44
80 -50 22 -6 50 -22 62 -35 13 -14 36 -28 52 -31 15 -3 38 -17 51 -29 22 -22
91 -59 113 -62 5 0 16 -2 23 -2 6 -1 12 -12 12 -23 0 -19 4 -21 30 -15 25 4
30 2 30 -13 0 -20 56 -61 82 -61 8 0 25 -11 38 -25 13 -14 29 -25 36 -25 6 0
17 -7 24 -15 7 -8 27 -17 46 -21 19 -3 31 -10 28 -15 -3 -5 4 -9 16 -9 13 0
24 -9 30 -25 7 -18 17 -25 35 -25 14 0 33 -7 43 -15 9 -8 32 -28 51 -45 19
-16 45 -30 57 -30 14 0 24 -6 24 -14 0 -7 15 -19 33 -27 17 -7 36 -19 40 -26
4 -7 14 -13 21 -13 7 0 24 -9 37 -20 13 -11 29 -23 34 -27 6 -5 30 -17 55 -28
25 -11 51 -28 58 -37 7 -10 21 -18 31 -18 11 0 22 -7 25 -16 3 -8 10 -12 16
-9 6 3 26 1 45 -6 27 -10 34 -17 29 -31 -4 -15 1 -18 30 -18 32 0 36 -3 36
-25 0 -28 36 -49 80 -46 20 1 30 -7 45 -35 13 -24 28 -37 47 -41 16 -3 33 -14
39 -24 12 -23 29 -25 29 -4 0 26 16 16 25 -17 6 -17 19 -36 30 -42 10 -6 25
-17 33 -23 7 -7 21 -13 31 -13 10 0 26 -9 36 -20 10 -11 23 -20 29 -20 6 0 16
-10 21 -22 6 -13 20 -27 33 -33 12 -5 22 -13 22 -17 0 -5 9 -8 19 -8 11 0 33
-11 49 -25 17 -14 34 -25 40 -25 5 0 12 -9 15 -20 3 -11 17 -22 33 -26 16 -4
37 -13 46 -22 10 -8 24 -12 32 -9 10 4 22 -6 35 -29 18 -29 26 -34 59 -34 46
0 76 -28 87 -80 8 -39 70 -110 96 -110 9 0 22 -7 29 -15 7 -8 19 -15 26 -15 8
0 14 -4 14 -9 0 -5 8 -11 18 -14 9 -4 35 -13 56 -21 27 -10 45 -12 57 -5 10 5
31 9 48 9 17 0 45 9 63 20 18 11 43 20 54 20 12 0 33 9 48 21 14 11 30 17 36
14 6 -4 15 7 21 23 9 28 13 29 52 25 31 -4 53 0 80 16 21 12 51 21 67 21 17 0
38 4 48 9 9 4 35 16 57 25 22 10 53 24 68 32 16 8 37 14 47 14 10 0 21 4 25 9
3 5 20 12 38 16 17 4 46 10 62 15 17 5 50 14 75 21 25 7 57 21 71 32 14 10 51
21 82 24 32 3 60 10 63 14 3 5 25 9 49 9 24 0 47 5 50 10 3 6 17 10 30 10 13
0 27 5 30 10 3 6 24 10 45 10 21 0 42 5 45 10 3 6 35 10 70 10 44 0 75 6 97
19 33 18 68 27 143 38 22 3 44 9 50 14 5 5 24 9 41 9 18 0 35 4 38 9 3 4 45
11 93 15 48 4 92 11 98 16 14 11 73 20 195 29 58 4 118 13 133 19 16 7 50 12
77 12 27 0 51 4 55 9 3 5 34 9 69 9 35 0 72 5 84 11 11 6 41 11 66 11 25 0 48
5 51 10 3 6 24 10 45 10 21 0 42 5 45 10 9 14 61 12 85 -2 15 -10 24 -10 38
-1 12 7 80 12 176 14 87 2 159 6 162 10 2 4 119 8 259 8 140 1 261 4 269 7 8
3 30 1 48 -5 22 -7 46 -7 73 -1 22 6 172 12 334 15 183 3 298 8 305 15 5 5 23
10 38 10 23 0 28 -4 28 -23 0 -13 3 -27 8 -31 8 -9 10 -46 14 -294 2 -141 6
-185 17 -191 9 -6 11 -14 4 -26 -6 -10 -7 -35 -2 -62 5 -24 7 -102 5 -171 -2
-76 1 -147 8 -177 7 -27 11 -95 10 -150 -2 -73 2 -106 12 -123 11 -16 12 -27
4 -42 -13 -24 -15 -95 -6 -185 7 -69 14 -195 20 -326 1 -36 6 -71 10 -78 5 -7
1 -20 -7 -29 -15 -17 -13 -66 4 -87 6 -9 5 -155 -2 -175 -1 -3 0 -9 1 -15 1
-5 4 -116 5 -246 2 -163 7 -247 16 -272 10 -28 10 -42 1 -62 -9 -19 -9 -32 -2
-46 8 -13 7 -25 0 -39 -6 -12 -8 -30 -3 -43 4 -12 9 -69 10 -127 5 -160 9
-200 21 -212 7 -7 12 -26 12 -44 0 -17 13 -55 29 -85 25 -48 32 -54 64 -57 29
-3 38 2 54 25 65 94 83 305 71 823 0 19 0 78 0 130 1 52 1 118 1 145 -1 28 1
84 3 125 3 41 3 79 0 84 -5 8 -8 244 -11 701 0 61 -6 155 -13 210 -6 55 -11
146 -9 203 1 62 -2 108 -8 116 -6 7 -10 30 -10 52 1 36 -3 109 -17 309 -5 78
-21 135 -36 135 -12 0 -10 58 2 65 13 8 13 108 1 149 -5 17 -14 78 -20 135 -5
57 -14 108 -20 114 -6 6 -11 23 -11 38 0 15 -7 32 -15 39 -8 6 -17 21 -21 33
-10 32 -65 97 -82 97 -13 0 -34 10 -153 71 -20 11 -46 19 -58 19 -11 0 -28 11
-37 25 -18 28 -171 108 -191 101 -7 -3 -23 8 -35 24 -12 16 -41 37 -65 46 -23
9 -48 23 -54 30 -6 8 -20 14 -31 14 -10 0 -41 18 -69 40 -28 22 -61 40 -74 40
-13 0 -31 10 -39 21 -19 28 -92 69 -122 69 -14 0 -32 11 -45 30 -18 24 -150
100 -175 100 -3 0 -12 7 -20 15 -9 8 -26 15 -40 15 -15 0 -41 16 -69 44 -54
52 -250 162 -281 158 -15 -2 -24 3 -29 17 -3 12 -16 26 -28 33 -23 13 -28 14
-64 16 -16 2 -23 8 -23 22 0 11 -7 20 -15 20 -8 0 -25 11 -39 25 -14 14 -34
25 -45 25 -11 0 -30 11 -43 24 -31 31 -124 80 -137 71 -6 -3 -23 8 -37 25 -31
36 -106 90 -127 90 -7 0 -24 12 -38 26 -25 27 -115 74 -142 74 -9 0 -19 9 -22
20 -10 31 -34 50 -64 50 -18 0 -32 8 -40 23 -6 12 -28 33 -49 46 -20 13 -49
32 -64 43 -15 10 -32 18 -37 18 -6 0 -21 11 -35 25 -14 14 -32 25 -41 25 -8 0
-37 15 -63 34 -27 18 -57 36 -68 40 -10 3 -48 33 -82 66 -72 66 -105 90 -126
90 -8 0 -21 12 -28 27 -7 15 -22 30 -33 33 -21 5 -177 118 -183 132 -2 5 -9 8
-17 8 -7 0 -18 7 -25 15 -7 8 -23 15 -36 15 -17 0 -24 6 -24 18 0 12 -14 25
-40 37 -22 10 -40 21 -40 25 0 14 -109 90 -130 90 -12 0 -24 9 -29 23 -10 26
-66 77 -84 77 -7 0 -25 14 -42 32 -16 17 -49 40 -72 50 -23 10 -44 26 -47 36
-7 19 -68 62 -90 62 -33 0 -66 23 -66 46 0 16 -10 29 -30 39 -36 19 -37 19
-49 -2z m-3521 -1773 c0 -5 -4 -10 -10 -10 -5 0 -10 5 -10 10 0 6 5 10 10 10
6 0 10 -4 10 -10z"/>
<path d="M10924 18343 c-3 -10 -10 -29 -15 -43 -5 -14 -12 -50 -14 -80 -11
-127 -18 -167 -36 -206 -10 -22 -19 -56 -19 -75 0 -19 -7 -54 -16 -79 -14 -40
-14 -45 0 -56 17 -12 22 -44 8 -44 -5 0 -19 -10 -31 -21 -19 -18 -22 -28 -17
-60 4 -23 2 -40 -5 -45 -6 -3 -8 -15 -6 -26 6 -20 4 -25 -26 -86 -9 -19 -17
-51 -17 -72 0 -21 -4 -42 -10 -45 -15 -9 -12 -25 5 -25 17 0 39 -36 30 -50 -4
-6 -10 -8 -15 -5 -16 10 -50 -15 -50 -35 0 -10 7 -23 16 -28 24 -13 14 -56
-13 -60 -28 -4 -39 -37 -22 -68 11 -21 10 -27 -11 -49 -19 -20 -21 -27 -10
-40 9 -11 10 -18 1 -29 -7 -8 -9 -29 -5 -53 5 -31 2 -42 -15 -57 -12 -11 -21
-31 -21 -45 0 -14 -6 -37 -13 -51 -7 -14 -14 -43 -16 -65 -2 -22 -7 -47 -11
-55 -4 -8 -11 -37 -15 -65 -4 -27 -14 -64 -22 -82 -12 -27 -13 -38 -2 -67 11
-31 10 -40 -7 -73 -10 -21 -25 -42 -31 -46 -9 -5 -13 -35 -13 -85 -1 -48 -6
-86 -15 -102 -20 -36 -18 -58 8 -83 28 -26 48 -78 40 -105 -3 -14 1 -22 15
-27 13 -3 28 -24 38 -53 10 -26 28 -57 41 -69 13 -12 23 -32 23 -45 0 -15 9
-27 23 -33 14 -6 23 -21 25 -38 3 -22 10 -29 33 -34 30 -6 79 -54 79 -77 0
-16 82 -106 97 -106 7 0 15 -9 18 -20 3 -11 12 -20 19 -20 7 0 21 -15 31 -34
14 -25 28 -36 52 -41 21 -4 33 -12 33 -22 0 -18 65 -83 84 -83 6 -1 20 -15 32
-33 12 -20 28 -31 40 -30 12 1 29 -12 45 -35 16 -23 40 -42 65 -51 21 -7 46
-19 54 -26 8 -7 24 -15 34 -16 11 -2 27 -17 36 -34 10 -16 22 -29 28 -28 5 1
16 -4 22 -12 7 -8 19 -15 28 -15 9 0 26 -10 40 -22 13 -13 31 -23 40 -23 9 0
22 -11 29 -24 14 -30 77 -64 101 -56 12 3 32 -9 60 -35 22 -22 48 -40 55 -40
8 0 22 -11 31 -25 10 -15 26 -25 41 -25 34 0 105 -32 105 -47 0 -15 66 -48
128 -63 24 -6 52 -20 64 -32 13 -13 28 -18 46 -15 19 4 31 -1 43 -17 24 -30
114 -76 149 -76 38 0 80 -20 80 -37 0 -19 25 -27 47 -15 19 11 53 -5 53 -25 0
-10 43 -25 107 -38 18 -4 35 -11 38 -16 4 -5 22 -9 41 -9 22 0 37 -6 40 -15 4
-8 17 -15 30 -15 13 0 24 -3 24 -8 0 -12 106 -33 132 -27 17 4 34 -2 62 -24
21 -17 49 -31 62 -31 13 0 24 -5 24 -10 0 -6 8 -5 19 2 16 10 27 8 64 -11 25
-13 50 -20 55 -17 6 4 29 -3 51 -15 23 -12 48 -18 57 -15 8 3 25 -1 38 -9 21
-14 25 -14 36 0 18 21 40 19 40 -5 0 -21 19 -27 36 -11 5 4 26 11 46 14 34 5
37 3 43 -23 6 -26 9 -28 52 -26 26 1 52 -4 59 -11 10 -11 15 -10 22 3 8 15 11
15 37 -2 25 -16 28 -17 37 -1 10 18 53 23 63 7 3 -5 14 -10 24 -10 10 0 24 -7
31 -15 7 -9 20 -13 27 -10 8 2 24 0 36 -7 12 -6 53 -11 92 -10 47 0 78 -5 96
-15 17 -10 33 -13 45 -8 11 5 58 10 106 11 47 1 91 5 98 9 6 4 18 1 27 -6 17
-15 120 -14 191 2 27 6 49 6 61 0 11 -6 55 -6 121 0 86 9 110 16 151 41 48 29
49 29 79 11 29 -17 32 -17 61 0 17 9 37 17 45 17 8 0 14 5 14 10 0 6 8 10 19
10 26 0 85 26 101 44 7 9 26 16 42 16 16 0 31 6 34 15 4 10 13 13 24 10 10 -3
21 -1 25 5 3 6 10 8 15 5 5 -3 16 10 24 30 16 38 19 40 46 25 13 -7 21 -5 31
6 7 9 23 20 36 25 13 5 23 15 23 23 0 7 14 16 30 20 17 3 30 11 30 18 0 7 12
25 25 40 20 23 28 26 48 19 14 -6 27 -16 30 -23 4 -9 16 -1 37 25 38 44 51 46
67 10 11 -24 10 -30 -9 -50 -17 -18 -19 -25 -8 -38 10 -12 10 -18 0 -30 -12
-14 -11 -33 5 -96 6 -21 -1 -34 -39 -72 -25 -26 -51 -47 -59 -47 -8 0 -22 -9
-32 -20 -10 -11 -28 -20 -40 -20 -14 0 -25 -8 -28 -20 -4 -16 -14 -20 -47 -20
-27 0 -53 -8 -71 -21 -17 -12 -39 -19 -50 -16 -12 3 -31 -4 -49 -20 -17 -13
-54 -34 -82 -45 -29 -11 -69 -26 -88 -34 -19 -7 -44 -13 -55 -14 -11 0 -29 -7
-39 -15 -11 -8 -39 -15 -62 -15 -24 0 -46 -4 -49 -10 -3 -5 -26 -10 -50 -10
-24 0 -55 -4 -69 -10 -40 -15 -323 -17 -338 -2 -17 17 -25 15 -31 -8 -5 -18
-14 -20 -76 -20 -38 0 -82 5 -96 12 -18 8 -35 8 -59 1 -27 -8 -39 -8 -54 3
-13 9 -29 11 -48 5 -55 -15 -175 -4 -221 20 -33 17 -46 20 -55 11 -7 -7 -27
-12 -45 -12 -26 0 -33 4 -33 20 0 22 -10 26 -27 9 -16 -16 -253 1 -298 21 -11
5 -38 11 -60 14 -22 2 -62 10 -90 16 -27 6 -70 15 -95 19 -25 4 -73 18 -107
30 -35 12 -67 19 -73 16 -6 -4 -16 -2 -23 3 -7 5 -34 13 -62 17 -27 3 -59 12
-70 19 -11 7 -36 15 -55 18 -52 7 -171 39 -200 53 -14 7 -52 20 -85 30 -33 10
-64 22 -69 27 -6 4 -18 8 -28 8 -10 0 -24 11 -30 25 -10 23 -16 25 -52 20 -33
-5 -53 -1 -101 23 -33 16 -77 35 -97 41 -21 7 -40 17 -43 22 -4 5 -17 9 -30 9
-13 0 -43 9 -67 20 -42 19 -56 27 -110 63 -14 9 -35 17 -46 17 -28 0 -102 41
-113 62 -6 11 -21 18 -37 18 -16 0 -37 7 -48 15 -10 8 -28 15 -40 15 -11 0
-25 5 -32 12 -6 6 -42 28 -79 49 -38 21 -67 42 -66 48 2 6 -15 14 -37 17 -21
4 -47 15 -56 25 -9 11 -23 19 -31 19 -7 0 -13 4 -13 10 0 5 -16 14 -36 19 -36
10 -144 86 -144 102 0 4 -18 14 -40 20 -28 9 -40 18 -40 31 0 10 -6 18 -14 18
-18 0 -56 20 -81 43 -47 42 -93 77 -100 77 -9 0 -55 41 -94 84 -46 52 -96 96
-107 96 -13 0 -77 68 -94 100 -20 37 -53 70 -70 70 -22 0 -92 89 -86 109 7 23
-18 53 -38 45 -12 -5 -16 -1 -14 17 2 16 -3 24 -17 27 -34 7 -45 23 -45 68 0
24 -4 44 -10 44 -5 0 -10 7 -10 16 0 21 -25 44 -48 44 -23 0 -32 18 -32 62 0
21 -6 31 -20 35 -15 4 -18 11 -14 28 5 22 -17 115 -39 162 -7 16 -6 31 3 52 7
17 9 43 5 61 -4 17 -1 53 6 80 9 37 10 55 1 74 -8 19 -8 27 3 36 10 8 12 35 8
116 -4 89 -2 105 11 110 13 5 15 17 12 63 -3 31 -1 97 5 146 5 50 11 110 12
135 1 25 6 51 11 59 5 8 11 61 13 119 2 57 8 112 13 122 6 10 10 34 10 52 0
21 8 43 21 57 16 17 18 26 10 34 -19 19 -13 81 9 100 21 18 27 52 10 62 -13 8
-13 48 1 62 6 6 13 40 16 75 2 35 6 83 8 108 2 25 4 55 4 68 1 12 10 30 21 39
23 20 25 41 5 67 -9 12 -11 25 -6 35 5 9 12 39 16 66 4 28 12 53 18 57 8 5 7
14 -2 31 -12 22 -11 30 10 66 21 38 21 43 7 57 -13 13 -25 14 -69 6 -30 -5
-67 -10 -83 -11 -16 -1 -34 -5 -40 -10 -6 -4 -36 -16 -66 -25 -180 -56 -331
-113 -362 -136 -15 -11 -34 -20 -43 -20 -16 0 -65 -23 -175 -81 -30 -16 -60
-29 -65 -29 -6 0 -27 -11 -47 -25 -20 -14 -42 -25 -48 -25 -14 0 -84 -45 -140
-91 -25 -20 -50 -34 -56 -32 -7 2 -36 -19 -64 -47 -29 -27 -61 -50 -71 -50 -9
0 -36 -16 -59 -35 -23 -19 -45 -35 -49 -35 -4 0 -43 -35 -87 -77 -44 -43 -100
-94 -124 -114 -25 -20 -61 -54 -81 -75 -20 -22 -68 -73 -108 -114 -39 -41 -71
-80 -71 -87 0 -7 -9 -17 -20 -23 -11 -6 -20 -16 -20 -23 0 -7 -18 -34 -40 -62
-22 -27 -40 -55 -40 -61 0 -6 -11 -21 -25 -34 -14 -13 -25 -29 -25 -35 0 -7
-9 -20 -20 -30 -11 -10 -20 -24 -20 -31 0 -7 -11 -25 -24 -41 -13 -15 -27 -39
-31 -53 -4 -14 -18 -43 -30 -66 -22 -39 -33 -61 -55 -104 -5 -11 -10 -27 -10
-35 0 -9 -11 -32 -25 -53 -13 -20 -27 -57 -31 -82 -4 -25 -12 -52 -19 -60 -14
-18 -50 -131 -69 -221 -8 -35 -19 -77 -25 -94 -35 -104 -66 -594 -42 -674 6
-20 13 -58 15 -86 8 -85 43 -213 80 -298 14 -32 26 -64 26 -73 0 -8 9 -39 19
-70 16 -44 17 -56 7 -60 -16 -6 -136 58 -161 86 -10 11 -22 20 -27 20 -4 0
-27 8 -51 19 -87 38 -155 48 -367 55 -77 2 -103 -1 -139 -16 -30 -14 -54 -18
-77 -13 -23 4 -41 1 -56 -10 -13 -8 -35 -15 -50 -15 -15 0 -30 -4 -33 -10 -3
-5 -21 -10 -39 -10 -19 0 -39 -7 -46 -15 -7 -8 -17 -15 -22 -15 -6 0 -24 -6
-41 -14 -18 -8 -53 -22 -79 -31 -48 -18 -73 -38 -93 -78 -7 -15 -20 -22 -41
-22 -18 0 -43 -11 -63 -28 -18 -15 -45 -34 -60 -41 -43 -23 -159 -154 -163
-184 -2 -19 -9 -28 -26 -30 -13 -2 -27 -13 -32 -25 -5 -12 -23 -35 -40 -51
-16 -16 -30 -35 -30 -42 0 -7 -6 -17 -12 -21 -22 -14 -55 -68 -63 -101 -4 -18
-17 -44 -30 -57 -14 -13 -27 -36 -31 -52 -4 -15 -15 -37 -25 -48 -16 -18 -24
-42 -46 -134 -3 -14 -17 -40 -30 -59 -22 -34 -27 -57 -23 -115 1 -16 -4 -29
-14 -33 -15 -6 -40 -79 -51 -149 -3 -22 -8 -56 -12 -75 -3 -19 -6 -44 -7 -55
-1 -11 -4 -24 -7 -30 -4 -5 -7 -39 -7 -75 -1 -36 -4 -86 -7 -111 -5 -37 -3
-48 9 -52 13 -5 14 -11 4 -34 -10 -26 -20 -129 -18 -195 1 -7 -2 -26 -6 -41
-4 -18 -1 -34 8 -45 11 -12 14 -35 12 -82 -2 -36 -1 -72 2 -80 10 -23 11 -74
3 -85 -8 -11 -6 -48 4 -75 5 -14 11 -63 23 -185 3 -27 9 -59 14 -70 13 -30 21
-76 20 -112 0 -18 4 -33 10 -33 5 0 10 -13 10 -30 0 -16 3 -30 8 -30 4 0 8
-21 8 -47 1 -69 14 -131 30 -144 8 -6 14 -27 14 -45 0 -37 17 -119 31 -146 5
-10 9 -31 9 -47 0 -17 5 -33 10 -36 6 -3 10 -19 10 -35 0 -16 5 -32 10 -35 6
-3 10 -19 10 -35 0 -16 6 -41 14 -57 19 -38 36 -95 36 -121 0 -11 5 -24 10
-27 6 -3 10 -13 10 -22 0 -8 9 -27 19 -41 20 -29 33 -128 16 -125 -5 1 -17 4
-26 8 -11 4 -26 -3 -42 -21 -17 -18 -31 -25 -42 -20 -18 7 -136 -46 -156 -70
-6 -8 -21 -14 -33 -14 -14 0 -28 -13 -44 -40 -12 -22 -29 -40 -38 -40 -19 0
-84 -51 -84 -67 0 -6 -16 -20 -35 -32 -29 -17 -35 -26 -35 -54 0 -36 -20 -62
-49 -62 -9 0 -20 -14 -26 -32 -6 -17 -18 -40 -28 -51 -9 -10 -17 -30 -17 -44
0 -14 -9 -33 -20 -43 -12 -10 -19 -24 -16 -31 3 -7 -1 -18 -9 -24 -7 -6 -16
-23 -19 -38 -4 -15 -13 -40 -21 -57 -24 -53 -55 -164 -55 -200 0 -18 -4 -37
-10 -40 -5 -3 -10 -22 -10 -41 0 -20 -5 -45 -11 -56 -8 -15 -8 -27 2 -44 10
-19 10 -27 1 -36 -16 -16 -16 -172 0 -198 10 -15 9 -24 -2 -45 -10 -19 -11
-28 -2 -37 9 -9 12 -6 12 16 0 15 4 25 10 21 15 -9 12 -55 -4 -61 -12 -5 -14
-22 -10 -87 3 -44 9 -88 13 -96 5 -9 15 -49 22 -89 10 -55 19 -76 34 -84 28
-15 28 -14 16 -36 -11 -20 -8 -32 35 -132 9 -19 19 -44 23 -55 31 -75 60 -134
107 -211 30 -49 62 -102 72 -118 9 -16 33 -48 52 -70 20 -23 49 -59 65 -81 54
-74 312 -325 334 -325 11 0 25 -9 31 -20 6 -11 41 -40 78 -63 37 -24 80 -52
96 -63 59 -39 101 -65 116 -70 8 -3 23 -10 32 -15 10 -5 56 -9 103 -10 87 -1
121 10 111 38 -3 7 -1 37 5 67 8 48 7 59 -12 95 -15 29 -27 41 -43 41 -30 0
-123 51 -142 78 -8 12 -21 22 -28 22 -8 0 -16 7 -19 14 -3 8 -21 22 -39 32
-33 16 -55 34 -105 87 -14 15 -32 27 -40 27 -7 0 -13 6 -13 14 0 25 -85 106
-112 106 -20 0 -27 6 -31 28 -3 15 -19 45 -36 66 -17 21 -31 42 -31 47 0 4 -9
10 -19 14 -11 3 -24 18 -29 33 -5 15 -21 41 -36 57 -14 17 -26 36 -26 44 0 7
-13 30 -29 50 -16 21 -33 50 -37 66 -8 34 -21 59 -50 100 -12 17 -19 36 -16
43 5 16 -27 103 -44 117 -6 6 -15 40 -18 77 -4 36 -13 79 -20 93 -8 15 -14 57
-15 94 0 36 -5 100 -10 141 -15 106 -13 187 3 213 8 12 20 69 27 127 8 69 19
114 31 132 10 14 18 38 18 53 0 14 19 63 43 108 24 45 48 97 55 115 6 19 21
36 36 42 18 7 26 17 26 34 0 24 53 76 77 76 5 0 18 9 28 20 10 11 24 20 31 20
7 0 27 12 44 27 18 15 40 27 50 28 10 1 25 9 34 17 8 9 48 22 88 28 40 7 78
17 85 22 7 5 17 7 23 3 5 -3 16 -3 23 2 6 4 32 9 57 9 25 1 61 4 80 7 27 4 39
0 52 -17 14 -17 19 -19 29 -8 18 17 81 15 105 -3 12 -9 32 -12 55 -8 20 3 39
1 42 -4 3 -4 1 -30 -4 -56 -5 -31 -5 -57 2 -75 10 -23 12 -262 4 -517 -1 -33
2 -65 6 -70 7 -10 12 -78 24 -300 3 -44 8 -106 13 -138 7 -43 5 -62 -5 -76
-10 -15 -10 -26 -3 -43 6 -13 15 -66 20 -118 5 -52 12 -115 15 -140 3 -25 5
-79 5 -120 -1 -49 4 -88 15 -114 9 -22 18 -70 21 -108 2 -38 7 -74 11 -81 4
-7 9 -32 10 -57 1 -51 15 -120 28 -140 5 -8 10 -53 12 -99 2 -53 9 -93 18
-108 8 -12 15 -35 15 -51 0 -15 6 -37 14 -48 8 -10 12 -29 9 -41 -3 -12 2 -36
11 -54 9 -18 16 -48 16 -68 0 -20 10 -61 21 -91 12 -30 25 -87 30 -126 4 -39
17 -88 28 -108 12 -20 21 -44 21 -54 0 -24 22 -82 43 -113 12 -18 16 -36 12
-52 -4 -16 0 -35 11 -52 10 -15 19 -37 20 -48 5 -46 18 -83 35 -109 11 -14 19
-33 19 -42 0 -9 4 -24 9 -34 5 -9 21 -56 36 -105 16 -48 34 -92 41 -98 7 -6
16 -35 19 -64 4 -30 13 -60 21 -66 8 -6 14 -17 14 -23 0 -7 11 -27 25 -46 14
-19 25 -41 25 -49 0 -9 11 -38 25 -66 13 -27 25 -57 25 -66 0 -9 14 -33 30
-54 17 -21 35 -56 41 -79 6 -23 17 -52 25 -66 7 -14 21 -41 30 -60 9 -19 19
-37 23 -40 4 -3 15 -21 25 -40 10 -19 28 -53 41 -75 26 -44 65 -124 65 -134 0
-3 14 -19 30 -34 17 -16 30 -37 30 -47 0 -10 4 -21 9 -24 5 -3 18 -25 30 -48
31 -61 54 -99 96 -154 20 -27 41 -57 46 -69 13 -29 30 -56 62 -93 15 -18 27
-37 27 -43 0 -6 13 -24 30 -40 16 -17 42 -52 57 -80 15 -27 35 -51 43 -54 8
-3 26 -25 39 -51 14 -25 44 -63 68 -83 24 -21 43 -42 43 -45 0 -6 39 -65 50
-76 3 -3 13 -17 23 -32 10 -16 24 -28 32 -28 8 0 21 -12 29 -28 8 -15 51 -64
95 -109 45 -46 81 -87 81 -93 0 -6 11 -15 25 -20 14 -5 30 -21 35 -35 5 -14
14 -25 20 -25 6 0 34 -24 63 -54 29 -29 67 -61 85 -70 18 -9 34 -27 38 -42 6
-25 100 -94 129 -94 7 0 17 -10 21 -22 8 -26 82 -97 102 -98 7 0 15 -6 18 -14
3 -8 19 -18 35 -21 16 -4 29 -12 29 -19 0 -17 33 -46 53 -46 8 0 24 -10 34
-23 10 -12 30 -28 46 -34 15 -7 27 -17 27 -23 0 -5 21 -20 48 -32 26 -12 60
-34 76 -50 16 -15 39 -31 50 -34 12 -4 31 -17 43 -30 12 -13 31 -24 41 -24 10
0 27 -9 37 -20 9 -10 20 -18 24 -18 13 4 51 -14 51 -23 0 -6 15 -16 33 -24 17
-7 47 -25 66 -39 20 -15 48 -26 67 -26 19 0 40 -9 55 -23 13 -13 39 -29 57
-36 17 -8 32 -17 32 -21 0 -9 61 -32 70 -27 3 1 18 -8 34 -20 16 -13 33 -20
38 -17 5 3 18 -2 28 -11 10 -9 23 -14 28 -11 5 3 26 -4 48 -14 21 -11 43 -20
50 -20 6 0 37 -11 68 -25 31 -14 56 -22 56 -18 0 4 5 2 12 -5 7 -7 20 -12 29
-12 10 0 19 -4 21 -10 2 -5 35 -14 73 -19 39 -5 85 -18 104 -29 18 -11 40 -18
50 -15 10 2 23 -3 30 -11 8 -9 25 -16 39 -16 14 0 39 -4 56 -10 61 -18 162
-41 206 -46 25 -2 54 -9 65 -14 11 -5 47 -11 80 -14 33 -3 96 -8 140 -11 157
-13 328 -15 341 -4 8 6 19 7 26 2 7 -4 75 -8 150 -8 104 0 138 3 138 13 0 13
16 16 24 4 7 -11 186 6 203 19 8 7 31 9 58 5 42 -5 46 -4 55 20 8 19 14 23 23
16 6 -5 26 -12 44 -15 25 -5 33 -2 37 11 5 15 18 18 80 18 45 0 81 5 90 13 8
7 23 10 34 7 10 -3 27 1 38 9 10 8 32 15 47 15 15 0 44 7 64 15 19 8 49 15 65
15 22 0 31 6 35 21 4 12 11 18 20 15 8 -4 48 4 89 16 65 18 74 24 74 45 0 26
12 30 30 8 16 -19 50 -20 50 -1 0 7 9 16 20 19 11 3 20 12 20 21 0 12 11 16
45 16 42 0 128 31 140 51 3 4 12 6 20 3 8 -3 36 5 62 19 26 14 62 30 80 37 27
10 32 18 35 47 3 31 7 36 30 39 19 2 27 -3 31 -17 6 -22 34 -16 55 13 7 10 20
18 28 18 8 0 14 4 14 9 0 5 16 12 35 15 19 4 39 15 45 25 5 10 28 26 50 35 22
9 40 20 40 26 0 5 3 9 8 8 14 -3 47 16 88 49 23 18 45 33 49 33 9 0 69 48 105
85 14 14 32 25 41 25 8 0 22 9 32 20 9 11 23 20 30 20 7 0 26 13 41 29 20 21
26 35 21 50 -4 12 -2 21 4 21 6 0 11 -7 11 -16 0 -25 35 -12 38 14 2 13 14 27
26 32 13 4 39 27 58 49 19 23 44 41 54 41 11 0 39 18 62 40 22 22 44 40 47 40
8 0 54 53 55 63 0 12 42 46 56 47 11 0 38 28 94 99 14 17 28 31 32 31 4 0 27
20 51 46 42 43 58 67 71 107 3 9 14 17 24 17 23 0 82 60 82 83 0 9 6 17 13 17
23 0 137 136 137 164 0 14 5 26 11 26 16 0 89 82 89 99 0 8 12 25 28 37 22 18
25 25 15 35 -19 20 -16 49 5 49 11 0 27 9 37 20 10 11 24 20 32 20 10 0 12 6
8 20 -4 13 -2 20 7 20 18 0 60 47 77 85 7 17 17 38 22 47 5 10 9 23 9 30 0 7
12 19 28 25 15 7 33 27 41 45 8 18 27 51 43 74 15 23 28 46 28 51 0 5 20 40
45 78 25 39 50 86 55 106 6 20 21 48 34 62 28 30 50 91 42 113 -4 9 3 18 18
24 31 11 40 27 38 62 -2 18 6 35 23 51 15 14 28 39 32 63 6 43 20 67 34 58 5
-3 9 2 9 10 0 10 -9 16 -26 16 -14 0 -23 4 -19 10 3 6 15 10 27 10 11 0 22 8
25 20 3 11 11 20 17 20 19 0 39 45 32 68 -4 11 -3 29 2 39 41 79 45 90 33 111
-15 28 -16 27 24 51 19 11 35 26 35 32 0 7 8 21 17 31 13 14 14 21 5 30 -7 7
-12 20 -12 30 0 29 34 86 62 102 18 11 25 22 21 35 -3 11 7 45 21 75 27 57 33
96 16 96 -5 0 -10 5 -10 10 0 6 6 10 14 10 22 0 52 50 60 100 4 24 12 50 18
57 6 7 8 23 5 35 -3 11 -2 29 4 39 6 11 5 28 -2 46 -9 24 -7 30 11 45 12 10
33 18 46 18 13 0 32 9 41 20 10 11 25 20 35 20 19 0 70 27 133 70 22 15 63 39
91 53 28 14 72 42 97 61 26 20 50 36 52 36 5 0 111 85 155 124 8 7 25 18 37
25 29 15 176 139 186 157 4 8 12 14 17 14 6 0 23 14 38 30 16 17 33 30 37 30
10 0 224 223 225 234 0 4 23 36 50 70 28 33 54 66 60 72 5 7 15 27 23 45 8 19
21 40 30 48 10 7 17 21 17 30 0 9 9 27 20 41 11 14 20 29 20 33 0 5 14 28 30
52 17 24 30 50 30 59 0 8 5 18 10 21 6 3 10 13 10 22 0 9 11 39 24 67 13 28
29 69 36 91 7 22 21 62 31 89 11 27 19 59 19 72 0 12 4 25 9 28 4 3 11 27 14
53 3 27 13 91 22 143 18 102 29 467 16 485 -13 15 -21 63 -26 137 -2 39 -10
77 -19 90 -9 12 -16 37 -16 54 0 73 -147 378 -196 407 -8 4 -14 18 -14 31 0
13 -9 31 -20 41 -11 10 -20 22 -20 28 0 5 -22 30 -50 56 -27 26 -50 53 -50 60
0 12 -172 188 -224 229 -13 10 -15 22 -10 50 6 36 26 109 44 162 5 14 14 61
20 105 7 44 16 85 20 90 4 6 10 33 13 60 7 68 21 140 51 265 31 128 34 179 9
178 -10 -1 -34 5 -53 14 -63 27 -139 50 -149 44 -5 -3 -22 -3 -39 0 -23 5 -31
13 -36 36 -5 23 -10 29 -28 27 -30 -4 -65 16 -73 41 -4 13 -15 20 -31 20 -34
0 -104 74 -104 110 0 33 -17 59 -27 43 -5 -6 -17 -13 -28 -15 -15 -2 -20 2
-18 17 1 11 -5 24 -13 28 -17 10 -18 34 -2 39 9 3 13 31 15 84 1 43 4 99 8
124 3 25 7 57 8 72 1 15 12 37 25 49 16 14 22 28 18 43 -4 15 1 26 14 34 24
14 26 32 5 32 -31 0 -12 60 35 113 26 30 29 39 20 57 -9 17 -6 28 20 64 16 25
30 56 30 71 0 19 9 31 31 43 25 14 29 22 25 44 -5 25 19 60 33 48 3 -3 7 10 9
28 3 27 7 32 28 32 29 0 42 24 24 45 -16 19 -7 31 41 55 28 15 39 27 39 43 0
26 8 37 35 55 11 7 35 22 53 33 18 12 32 29 32 40 0 11 15 33 34 49 l33 30
-18 56 c-11 31 -23 62 -28 68 -5 6 -15 31 -22 56 -7 25 -23 61 -36 80 -13 19
-23 40 -23 47 0 6 -11 24 -23 40 -13 15 -27 39 -30 53 -3 14 -22 43 -42 64
-19 21 -35 43 -35 49 0 15 -95 136 -150 192 -27 28 -50 55 -50 60 0 9 -20 29
-140 136 -16 15 -49 38 -74 53 -25 14 -48 30 -51 35 -8 14 16 61 31 61 7 0 37
33 68 74 30 40 62 76 71 79 8 4 15 16 15 27 0 11 8 24 18 27 21 9 49 41 58 68
4 11 15 25 24 32 10 7 20 25 23 40 3 16 19 37 36 48 17 11 31 26 31 33 0 6 15
27 34 45 38 37 56 67 56 96 0 11 14 28 35 41 19 12 35 27 35 34 0 7 9 23 19
35 11 13 23 36 26 52 4 15 20 40 36 53 16 14 29 31 29 39 0 8 38 73 85 143
l85 129 -4 87 c-2 47 -7 91 -11 97 -4 7 0 22 8 35 9 12 12 28 7 37 -15 28 -21
131 -9 146 9 11 8 16 -6 27 -15 11 -17 23 -12 77 7 76 -4 101 -41 98 -15 -1
-34 0 -42 3 -18 6 -207 37 -300 49 -36 4 -80 5 -98 2 -21 -3 -47 1 -73 12 -29
14 -45 16 -61 8 -17 -7 -32 -6 -58 5 -33 15 -100 26 -235 38 -33 3 -65 10 -72
16 -7 5 -26 7 -43 3 -21 -5 -39 -2 -55 9 -14 9 -44 16 -67 17 -24 0 -56 7 -73
14 -28 12 -95 28 -171 42 -18 2 -42 -1 -55 -7 -19 -10 -24 -10 -34 3 -7 9 -29
22 -51 29 l-39 13 3 50 c2 28 3 73 2 101 0 39 5 55 20 69 12 11 20 31 20 48 0
17 9 49 19 71 27 57 31 96 15 127 -16 32 -37 41 -78 34 -17 -2 -59 -7 -94 -10
-64 -4 -157 -19 -224 -36 -21 -5 -55 -13 -75 -18 -56 -14 -178 -31 -221 -31
-20 -1 -48 -7 -62 -15 -14 -7 -37 -11 -51 -8 -15 3 -30 0 -33 -6 -5 -7 -42
-11 -96 -11 -49 0 -92 -4 -95 -10 -3 -5 -18 -10 -32 -10 -15 0 -40 -5 -57 -10
-17 -6 -89 -23 -161 -39 -130 -29 -268 -64 -315 -80 -14 -5 -45 -14 -70 -21
-25 -7 -54 -16 -65 -20 -11 -4 -67 -22 -125 -41 -58 -18 -134 -45 -169 -61
-35 -15 -69 -28 -75 -28 -11 0 -134 -40 -266 -85 -77 -27 -158 -61 -223 -95
-22 -11 -46 -20 -55 -20 -10 0 -32 -9 -50 -20 -18 -11 -37 -20 -42 -20 -6 0
-55 -22 -109 -49 -88 -43 -106 -48 -160 -47 -33 1 -66 7 -73 14 -7 7 -19 12
-28 12 -16 0 -123 83 -128 100 -2 6 -17 10 -34 10 -24 0 -29 3 -24 16 10 27
-21 54 -55 47 -25 -5 -29 -3 -29 18 0 28 -55 76 -115 100 -24 10 -45 27 -53
43 -8 15 -24 31 -36 36 -12 4 -28 15 -35 24 -7 9 -20 16 -27 16 -8 0 -14 5
-14 11 0 5 -15 16 -32 24 -18 8 -46 28 -62 45 -16 16 -34 30 -39 30 -5 0 -32
20 -59 45 -28 25 -58 45 -69 45 -10 0 -24 8 -31 18 -20 26 -95 82 -111 82 -8
0 -22 9 -32 20 -9 10 -35 29 -57 40 -22 12 -47 27 -55 35 -8 8 -21 15 -28 15
-8 0 -18 6 -22 14 -4 7 -23 21 -40 30 -18 9 -33 20 -33 25 0 5 -24 23 -53 39
-29 16 -59 37 -66 46 -7 9 -20 16 -27 16 -8 0 -23 9 -34 20 -11 11 -33 20 -49
20 -23 0 -42 12 -79 50 -28 28 -58 50 -70 50 -12 0 -37 14 -55 30 -19 17 -38
30 -43 30 -4 0 -34 18 -65 40 -32 22 -62 40 -68 40 -5 0 -21 11 -35 25 -14 14
-34 25 -45 25 -11 0 -26 6 -33 13 -18 17 -87 57 -99 57 -6 0 -30 14 -54 30
-24 17 -48 30 -53 30 -5 0 -17 9 -28 21 -10 11 -32 27 -49 34 -16 8 -49 26
-73 40 -23 14 -47 25 -51 25 -5 0 -26 11 -48 25 -21 14 -41 25 -46 25 -18 -1
-67 32 -67 45 0 8 -7 15 -16 15 -18 0 -77 31 -82 43 -7 14 -33 7 -38 -10z
m-1780 -3579 c16 -25 37 -51 47 -57 11 -7 19 -17 19 -24 0 -13 31 -52 73 -91
15 -14 27 -31 27 -38 0 -7 13 -22 29 -34 17 -11 33 -29 36 -40 4 -11 15 -20
25 -20 11 0 24 -8 29 -19 18 -33 131 -148 204 -208 39 -32 91 -77 116 -99 25
-23 63 -57 84 -75 21 -19 54 -49 72 -66 19 -18 41 -33 50 -33 9 0 18 -7 22
-15 3 -9 22 -24 42 -34 20 -11 47 -31 60 -45 14 -14 30 -26 37 -26 6 0 18 -7
25 -16 7 -9 40 -34 74 -55 92 -59 165 -113 165 -121 0 -4 16 -8 35 -8 24 0 37
-6 45 -20 6 -11 19 -20 29 -20 9 0 28 -12 42 -26 13 -14 51 -39 84 -55 33 -16
74 -37 90 -47 17 -10 55 -28 85 -41 30 -13 60 -28 65 -35 6 -7 28 -16 49 -19
22 -3 42 -11 46 -17 4 -6 16 -12 28 -15 13 -2 36 -14 53 -26 17 -12 51 -28 77
-35 25 -8 55 -20 67 -28 11 -7 40 -17 65 -21 43 -7 80 -21 172 -65 27 -12 55
-19 64 -16 9 4 23 1 30 -5 8 -6 21 -9 29 -5 9 3 23 -2 33 -12 10 -10 44 -24
75 -32 32 -7 60 -17 63 -21 2 -5 12 -5 20 -2 8 3 25 1 37 -4 51 -24 140 -44
167 -38 16 3 31 2 35 -4 3 -6 19 -11 35 -11 16 0 30 -7 34 -15 3 -10 17 -15
38 -14 41 2 94 -6 131 -20 16 -6 50 -11 76 -11 26 0 51 -4 56 -9 6 -5 46 -12
90 -15 154 -10 180 -13 235 -24 86 -17 344 -28 485 -22 11 1 80 -1 154 -4 89
-4 167 -1 230 8 53 8 125 13 161 12 36 -2 70 1 75 5 6 4 37 10 70 13 33 3 92
10 130 16 39 5 88 12 110 13 77 7 185 29 185 38 0 5 16 9 36 7 20 -1 39 3 43
11 5 8 24 12 49 10 22 -2 46 2 54 8 7 6 36 14 63 18 28 4 83 18 124 31 40 13
81 24 91 24 9 0 27 9 40 20 13 12 29 18 36 16 7 -3 28 2 46 12 18 9 45 15 61
13 17 -2 29 3 33 13 3 9 15 16 25 16 27 0 155 46 196 70 43 25 90 26 96 3 6
-22 2 -107 -6 -119 -3 -5 3 -27 14 -48 11 -23 19 -61 19 -89 0 -116 44 -308
91 -399 6 -12 5 -25 -3 -38 -12 -18 -9 -24 20 -50 27 -23 31 -32 24 -47 -7
-13 -5 -29 9 -57 10 -22 19 -52 19 -68 0 -16 9 -36 20 -45 11 -10 20 -29 20
-43 0 -14 9 -36 20 -50 11 -14 20 -35 20 -48 0 -13 9 -42 20 -64 11 -23 20
-50 20 -60 0 -10 5 -18 10 -18 6 0 10 -8 10 -18 0 -9 9 -34 20 -55 11 -20 20
-44 20 -53 0 -9 9 -18 20 -21 11 -3 21 -13 22 -22 0 -9 2 -21 2 -28 1 -6 12
-24 26 -40 14 -15 31 -40 37 -55 7 -16 17 -28 23 -28 5 0 10 -9 10 -19 0 -11
5 -23 10 -26 6 -3 10 -16 10 -27 0 -11 17 -40 38 -63 20 -23 51 -65 67 -93 17
-28 40 -56 53 -61 15 -7 22 -19 22 -38 0 -20 10 -36 31 -53 43 -34 60 -52 89
-95 51 -77 100 -123 135 -129 20 -4 39 -16 46 -27 14 -27 33 -19 39 17 5 28 8
29 67 35 60 6 113 29 113 49 0 6 11 8 26 4 20 -5 31 -1 51 21 18 19 32 26 50
22 13 -2 42 2 65 10 23 8 67 13 100 11 32 -1 62 2 66 7 14 21 105 36 139 24
36 -12 96 -7 117 10 10 8 16 8 26 -4 8 -10 30 -15 61 -15 26 0 51 -4 54 -10 3
-5 24 -10 45 -10 21 0 42 -5 45 -10 3 -6 17 -7 29 -4 16 4 25 0 29 -10 4 -9
13 -16 22 -16 8 0 24 -4 35 -10 11 -5 29 -14 40 -20 11 -5 31 -10 46 -10 18 0
28 -6 31 -20 5 -19 40 -40 90 -55 24 -7 115 -89 130 -119 6 -11 21 -20 34 -21
17 -1 25 -9 27 -26 4 -25 33 -59 52 -59 5 0 10 -6 10 -14 0 -8 13 -24 30 -36
17 -12 27 -27 24 -35 -3 -8 5 -25 18 -38 12 -13 32 -40 43 -61 11 -20 30 -47
43 -58 12 -12 22 -31 22 -42 0 -36 23 -87 37 -81 14 5 37 -40 28 -55 -3 -5 0
-12 6 -15 5 -4 8 -14 5 -22 -4 -8 3 -30 14 -47 11 -18 24 -65 30 -106 6 -40
13 -77 17 -84 13 -21 11 -299 -2 -336 -20 -52 -27 -157 -12 -163 9 -3 7 -12
-5 -35 -10 -16 -18 -42 -18 -56 0 -14 -8 -30 -19 -35 -14 -8 -20 -27 -25 -80
-4 -41 -13 -74 -22 -81 -7 -7 -14 -22 -14 -33 0 -11 -11 -30 -25 -43 -14 -13
-25 -34 -25 -49 0 -14 -4 -25 -10 -25 -5 0 -12 -16 -16 -36 -4 -24 -14 -38
-30 -44 -13 -5 -26 -21 -30 -35 -3 -14 -15 -30 -25 -36 -11 -5 -19 -16 -19
-23 0 -7 -9 -21 -20 -31 -11 -10 -20 -23 -20 -30 0 -7 -22 -35 -50 -64 -28
-29 -50 -55 -51 -59 0 -4 -29 -31 -65 -61 -35 -29 -70 -65 -76 -79 -8 -16 -35
-37 -66 -53 -30 -15 -70 -43 -91 -63 -20 -20 -44 -36 -53 -36 -9 0 -31 -18
-48 -40 -17 -22 -36 -37 -41 -34 -5 3 -31 -13 -58 -35 -27 -23 -55 -41 -64
-41 -8 0 -25 -8 -38 -18 -13 -10 -32 -22 -42 -25 -9 -4 -20 -20 -23 -37 -6
-28 -10 -30 -51 -30 -44 0 -102 -22 -115 -45 -4 -6 -25 -17 -48 -25 -22 -7
-40 -16 -40 -19 0 -3 -25 -17 -55 -31 -30 -14 -58 -35 -64 -47 -6 -13 -17 -23
-25 -23 -8 0 -27 -5 -43 -12 -15 -7 -44 -12 -63 -13 -33 0 -36 -3 -45 -42 -6
-23 -13 -45 -18 -49 -4 -4 -7 -15 -7 -24 0 -9 -6 -30 -14 -46 -8 -16 -17 -55
-21 -86 -3 -32 -11 -60 -16 -63 -5 -4 -9 -17 -9 -31 0 -13 -4 -24 -9 -24 -5 0
-16 -32 -25 -71 -9 -39 -22 -85 -30 -102 -12 -30 -37 -132 -51 -218 -4 -21
-19 -47 -36 -63 -16 -15 -29 -38 -29 -51 0 -13 -5 -27 -11 -31 -6 -3 -9 -17
-6 -30 2 -14 -1 -28 -9 -32 -7 -4 -15 -28 -18 -53 -3 -31 -13 -55 -30 -74 -25
-27 -30 -38 -27 -61 1 -6 -5 -17 -13 -23 -28 -23 -78 -142 -73 -174 3 -23 0
-31 -15 -35 -16 -4 -19 -11 -14 -36 5 -27 1 -35 -28 -58 -18 -15 -36 -39 -39
-56 -3 -16 -22 -48 -41 -71 -20 -24 -39 -54 -42 -68 -4 -14 -21 -48 -39 -75
-18 -27 -36 -65 -40 -84 -3 -20 -16 -41 -29 -50 -26 -16 -40 -50 -25 -60 16
-10 10 -23 -13 -26 -13 -2 -24 -11 -27 -23 -2 -10 -16 -31 -32 -46 -16 -15
-29 -34 -29 -42 0 -8 -7 -21 -17 -28 -9 -8 -22 -28 -29 -45 -7 -17 -22 -42
-33 -55 -51 -61 -71 -88 -71 -96 0 -6 -10 -18 -21 -29 -12 -10 -35 -47 -50
-81 -22 -47 -36 -63 -59 -71 -24 -9 -30 -17 -30 -41 0 -17 -3 -30 -7 -30 -24
4 -33 -4 -33 -29 0 -33 -33 -72 -60 -72 -12 0 -30 -16 -46 -42 -14 -22 -39
-52 -55 -65 -16 -14 -29 -29 -29 -34 0 -5 -19 -29 -42 -53 -116 -117 -143
-147 -143 -158 0 -7 -10 -15 -21 -18 -12 -3 -33 -19 -48 -37 -40 -47 -90 -96
-133 -129 -21 -16 -58 -48 -82 -71 -24 -24 -47 -43 -50 -43 -15 -1 -71 -58
-80 -83 -6 -15 -14 -26 -18 -25 -16 4 -57 -15 -80 -38 -12 -13 -39 -31 -58
-40 -19 -9 -45 -27 -58 -41 -12 -13 -35 -30 -52 -38 -16 -9 -44 -25 -61 -38
-17 -12 -51 -34 -75 -49 -24 -16 -71 -45 -105 -67 -33 -21 -71 -42 -84 -46
-13 -4 -33 -18 -43 -31 -10 -13 -27 -24 -37 -24 -26 0 -145 -57 -165 -80 -10
-11 -26 -20 -35 -20 -9 0 -37 -11 -61 -23 -24 -13 -56 -27 -70 -30 -14 -4 -38
-19 -53 -33 -22 -22 -30 -25 -49 -17 -16 8 -30 7 -52 -5 -59 -30 -65 -32 -80
-32 -8 0 -15 -6 -15 -14 0 -21 -19 -30 -34 -16 -11 8 -22 6 -48 -10 -18 -11
-42 -20 -53 -20 -11 0 -45 -10 -75 -21 -30 -12 -72 -23 -94 -24 -23 -1 -42 -8
-47 -18 -8 -13 -14 -14 -34 -5 -19 8 -31 8 -50 0 -14 -7 -41 -12 -59 -12 -18
0 -52 -6 -77 -14 -60 -20 -131 -29 -214 -28 -38 0 -75 -4 -81 -9 -6 -5 -24 -8
-40 -8 -228 3 -408 -2 -419 -11 -9 -7 -20 -8 -32 -2 -40 20 -133 33 -325 47
-31 3 -76 9 -100 14 -23 6 -61 11 -83 11 -23 0 -45 4 -50 9 -12 9 -91 29 -120
29 -28 1 -114 20 -128 29 -22 14 -82 33 -105 33 -13 0 -42 9 -64 20 -23 11
-50 20 -60 20 -10 0 -18 4 -18 9 0 5 -16 15 -36 21 -20 7 -48 18 -62 26 -15 8
-34 14 -43 14 -9 0 -22 7 -29 15 -7 8 -23 15 -35 15 -13 0 -36 6 -52 14 -15 8
-51 26 -79 40 -29 14 -58 26 -66 26 -8 0 -23 9 -33 20 -10 11 -23 20 -29 20
-6 0 -22 9 -36 20 -14 11 -35 20 -47 20 -12 0 -35 14 -51 30 -17 17 -37 30
-46 30 -8 0 -37 15 -63 33 -26 17 -59 32 -73 32 -17 0 -29 8 -38 28 -7 15 -20
27 -28 27 -9 0 -33 18 -55 40 -22 22 -46 40 -53 40 -8 0 -28 14 -46 30 -18 17
-38 30 -45 30 -6 0 -20 9 -30 20 -10 11 -22 20 -28 20 -5 0 -38 27 -74 60 -36
33 -74 60 -84 60 -11 0 -19 7 -19 15 0 8 -39 47 -87 87 -47 40 -105 92 -127
116 -23 23 -77 80 -120 125 -43 45 -101 109 -129 142 -27 33 -60 66 -73 73
-13 7 -24 18 -24 24 0 5 -13 22 -28 37 -28 25 -124 148 -170 218 -13 20 -32
37 -41 40 -10 2 -23 19 -30 38 -6 18 -18 36 -26 39 -8 3 -22 24 -31 46 -9 22
-25 45 -35 51 -11 5 -25 24 -33 42 -7 18 -28 48 -45 67 -18 18 -40 52 -48 75
-9 22 -24 49 -33 60 -10 11 -21 30 -25 43 -3 12 -17 30 -31 38 -14 10 -24 26
-24 39 0 13 -11 37 -25 53 -14 17 -32 47 -41 69 -21 50 -61 103 -80 103 -9 0
-14 10 -14 30 0 17 -4 38 -9 48 -23 46 -77 153 -102 202 -16 30 -29 60 -29 66
0 6 -8 22 -18 35 -10 13 -24 42 -31 64 -7 22 -26 68 -42 101 -16 34 -29 66
-29 71 0 6 -9 18 -20 28 -11 10 -23 34 -26 54 -4 20 -14 54 -24 76 -9 22 -20
47 -23 55 -4 8 -11 22 -16 30 -5 8 -14 37 -20 64 -14 59 -48 136 -61 136 -5 0
-6 15 -3 34 4 26 -1 47 -21 82 -14 25 -26 61 -26 79 0 18 -13 65 -30 105 -16
40 -30 80 -30 89 0 9 -9 41 -20 71 -11 30 -18 61 -15 69 3 7 0 19 -6 27 -6 7
-17 41 -25 76 -8 35 -18 72 -23 83 -5 11 -17 65 -26 120 -10 55 -22 118 -28
140 -12 47 -17 81 -17 113 0 13 -5 32 -10 42 -6 10 -15 65 -21 122 -5 57 -14
119 -19 138 -5 19 -14 69 -20 110 -7 41 -16 84 -21 95 -5 11 -11 70 -13 130
-3 61 -10 155 -15 210 -6 55 -13 219 -17 365 -3 146 -6 274 -7 285 0 11 4 67
8 125 5 58 8 114 7 125 -9 120 5 490 18 516 6 10 10 60 10 113 0 52 4 98 10
101 6 3 10 21 10 40 0 19 4 56 10 82 10 47 19 135 24 220 2 23 8 48 15 56 6 8
11 30 10 48 -2 19 3 50 9 69 6 19 23 100 37 180 26 143 46 226 68 285 6 16 10
42 8 57 -1 15 4 40 12 55 18 35 47 133 47 161 0 11 3 22 8 24 7 3 77 207 102
298 13 47 24 75 39 100 14 22 23 51 27 84 2 16 17 54 33 85 16 31 32 71 35 88
4 17 14 37 22 44 8 6 14 19 14 29 0 10 7 23 15 30 8 7 12 16 10 21 -3 4 4 25
15 46 11 21 20 43 20 49 0 11 51 122 90 196 11 20 20 46 20 56 0 11 6 25 14
31 8 6 20 26 27 43 7 18 21 40 31 50 10 10 18 25 18 33 0 9 18 44 39 80 22 35
44 79 50 98 7 19 20 42 30 51 10 9 33 46 51 84 19 37 44 80 57 96 13 16 33 45
44 65 47 86 76 131 102 160 15 17 27 33 27 37 0 3 14 25 30 49 17 24 30 50 30
58 0 9 3 17 8 19 4 2 25 28 46 58 21 30 50 66 63 80 14 14 43 50 64 80 55 76
161 189 179 189 8 1 28 -20 44 -45z"/>
<path d="M9926 11943 c-3 -3 -63 -7 -133 -8 -71 -1 -146 -4 -168 -7 -22 -3
-65 -9 -95 -13 -30 -4 -91 -20 -136 -36 -44 -16 -94 -29 -111 -29 -33 0 -183
-65 -183 -79 0 -5 -15 -9 -34 -9 -23 0 -41 -8 -60 -27 -16 -16 -33 -24 -42
-21 -10 4 -35 -8 -63 -27 -25 -19 -70 -46 -100 -61 -53 -26 -136 -85 -177
-125 -12 -12 -25 -21 -31 -21 -16 0 -55 -48 -48 -59 4 -7 -8 -18 -29 -26 -22
-9 -36 -22 -36 -33 0 -9 -12 -28 -25 -41 -17 -15 -25 -34 -25 -56 0 -18 -3
-40 -6 -48 -8 -21 31 -57 61 -57 36 0 56 14 152 108 47 45 91 82 99 82 8 0 31
15 51 34 21 18 48 37 61 40 12 4 36 19 52 33 17 14 33 23 36 20 3 -3 29 10 57
29 28 19 59 34 69 34 9 0 20 5 23 10 3 6 14 10 24 10 10 0 30 9 44 20 14 11
37 20 51 20 15 0 34 4 44 9 41 21 71 32 125 45 31 8 61 17 66 20 4 3 39 10 77
16 38 5 87 13 109 16 118 20 386 19 480 0 17 -4 55 -12 85 -18 30 -6 93 -24
140 -40 47 -17 96 -32 110 -35 14 -3 32 -11 40 -18 8 -7 29 -16 47 -20 18 -3
42 -14 55 -24 28 -22 87 -51 102 -51 6 0 24 -13 39 -30 16 -16 35 -30 42 -30
8 0 19 -9 25 -20 6 -11 40 -39 75 -61 36 -22 84 -62 108 -88 23 -27 56 -58 73
-71 l32 -22 63 22 c83 29 99 44 99 92 0 51 -6 61 -101 174 -9 10 -25 27 -35
36 -10 10 -30 29 -44 43 -13 13 -39 32 -56 40 -17 8 -37 21 -44 30 -7 8 -16
15 -20 15 -4 0 -44 25 -89 55 -45 30 -86 55 -91 55 -6 0 -27 11 -48 25 -20 13
-73 37 -117 54 -44 16 -93 34 -110 41 -16 6 -41 14 -55 16 -13 3 -54 11 -91
19 -36 8 -97 17 -135 21 -38 4 -73 10 -79 14 -13 9 -191 21 -199 13z"/>
<path d="M13370 11930 c-8 -5 -39 -10 -68 -10 -29 0 -61 -4 -71 -9 -9 -5 -23
-6 -30 -2 -13 8 -56 -2 -94 -21 -10 -5 -27 -6 -37 -3 -10 3 -21 1 -25 -5 -3
-5 -19 -10 -35 -10 -16 0 -41 -5 -57 -11 -15 -6 -44 -15 -63 -19 -56 -12 -199
-67 -227 -87 -36 -25 -43 -29 -85 -47 -20 -9 -55 -32 -78 -51 -23 -19 -47 -35
-54 -35 -16 0 -249 -206 -257 -228 -4 -10 -14 -24 -23 -31 -22 -19 -56 -94
-56 -125 0 -18 12 -32 50 -55 28 -17 60 -31 73 -31 14 0 51 29 107 85 107 107
247 225 266 225 9 0 34 15 57 33 23 19 58 39 77 46 19 7 51 21 70 31 19 10 69
28 110 39 41 12 84 26 95 31 23 10 121 27 245 41 224 26 528 0 673 -56 20 -8
47 -15 60 -15 12 0 44 -11 71 -25 27 -13 52 -22 57 -20 4 3 10 1 14 -5 7 -12
88 -50 106 -50 12 0 42 -18 119 -70 14 -10 44 -27 67 -39 23 -11 54 -33 70
-47 15 -15 49 -40 75 -56 25 -16 49 -35 52 -43 3 -8 12 -15 20 -15 7 0 16 -10
19 -22 5 -16 9 -19 19 -10 7 6 46 11 86 11 136 0 164 39 100 135 -32 49 -119
126 -142 126 -7 0 -38 22 -69 49 -30 27 -86 63 -124 81 -37 19 -87 46 -110 62
-23 15 -48 28 -55 28 -7 0 -26 9 -43 20 -16 11 -37 20 -46 20 -9 0 -22 6 -28
14 -7 8 -24 17 -39 21 -15 4 -40 12 -57 20 -16 7 -68 23 -115 35 -47 12 -100
28 -118 36 -18 8 -44 11 -58 8 -15 -4 -34 0 -48 10 -14 9 -56 17 -101 20 -41
3 -80 8 -86 12 -5 3 -56 8 -112 10 -56 2 -109 6 -117 9 -8 2 -22 0 -30 -5z"/>
<path d="M13790 10884 c-135 -23 -262 -53 -305 -74 -104 -49 -195 -90 -201
-90 -4 0 -25 -14 -48 -30 -23 -17 -81 -60 -131 -96 -108 -79 -225 -187 -225
-208 0 -8 -12 -22 -28 -31 -28 -17 -72 -75 -72 -97 0 -6 -7 -18 -15 -27 -20
-21 -65 -90 -65 -100 0 -4 -9 -16 -20 -26 -11 -10 -20 -23 -20 -30 0 -6 -13
-29 -29 -51 -15 -21 -41 -68 -56 -104 -15 -36 -33 -80 -41 -98 -33 -76 -5
-179 52 -195 16 -5 43 -13 60 -18 84 -25 115 -2 188 143 31 62 62 122 69 133
31 51 53 83 79 113 15 18 28 38 28 45 0 7 21 32 46 57 25 25 53 54 62 64 32
35 78 71 160 123 24 16 61 43 84 61 22 17 44 32 49 32 5 0 32 16 59 35 27 19
58 35 68 35 11 0 40 11 66 25 26 14 56 25 67 25 11 0 33 7 49 15 16 8 69 18
119 22 85 6 89 5 96 -15 7 -26 0 -42 -20 -42 -15 0 -20 -15 -29 -85 -14 -99
-18 -121 -23 -135 -3 -8 -6 -47 -7 -87 -1 -61 2 -73 17 -77 25 -6 21 -25 -8
-36 -26 -10 -34 -43 -14 -56 6 -3 9 -19 5 -35 -4 -22 0 -32 16 -43 19 -13 22
-26 24 -84 1 -56 6 -76 29 -112 49 -78 127 -160 152 -160 15 0 27 -9 35 -25 6
-14 19 -25 29 -25 9 0 19 -5 21 -11 3 -10 30 -12 123 -9 16 0 39 7 52 15 12 8
30 15 40 15 18 0 68 50 123 123 32 43 100 180 100 202 0 8 7 40 16 72 27 98
35 173 31 298 -3 101 -9 137 -36 225 -18 58 -41 123 -51 145 -10 22 -19 45
-21 50 -16 43 -76 116 -116 142 -104 66 -138 81 -201 87 -35 3 -71 10 -82 16
-27 14 -250 10 -350 -6z"/>
<path d="M10415 10849 c-22 -5 -49 -11 -60 -14 -11 -3 -45 -9 -75 -13 -30 -4
-65 -13 -77 -20 -12 -7 -31 -12 -43 -12 -12 0 -36 -6 -53 -13 -49 -21 -101
-37 -122 -37 -51 0 -427 -215 -495 -283 -14 -14 -46 -40 -70 -59 -84 -65 -280
-274 -280 -300 0 -6 -15 -29 -33 -52 -55 -67 -91 -129 -89 -154 1 -15 -9 -32
-28 -49 -17 -13 -30 -30 -30 -37 0 -6 -9 -29 -19 -49 -11 -21 -27 -74 -35
-117 l-16 -79 27 -58 c34 -71 39 -75 83 -68 19 3 52 8 73 10 48 6 104 50 113
89 9 42 80 186 109 221 14 17 25 41 25 55 0 17 9 30 28 41 16 9 42 35 58 57
16 22 48 68 72 102 24 34 53 65 65 70 12 4 43 29 69 54 26 25 50 46 53 46 3 0
32 18 64 40 32 22 63 40 70 40 6 0 22 18 36 40 21 34 29 39 50 34 17 -4 40 4
82 30 32 20 64 36 72 36 7 0 24 9 38 20 15 11 34 18 43 15 9 -3 25 2 36 10 10
8 31 15 46 15 15 0 48 10 72 22 38 18 49 20 72 10 21 -10 25 -17 21 -40 -18
-89 -28 -126 -37 -137 -5 -6 -14 -38 -19 -71 -5 -32 -17 -93 -26 -134 -15 -66
-16 -96 -6 -255 11 -175 12 -181 41 -222 17 -23 30 -53 30 -68 0 -34 27 -85
45 -85 7 0 17 -9 20 -20 7 -23 91 -90 113 -90 8 0 21 -8 28 -17 8 -11 27 -19
51 -19 21 -1 50 -5 64 -9 25 -6 36 -2 152 59 19 10 38 29 41 41 3 13 17 30 31
39 17 11 25 26 25 44 0 16 5 33 10 38 6 6 12 20 15 32 2 12 11 32 19 44 9 12
16 36 16 53 0 17 4 35 9 40 11 13 32 122 30 165 0 19 4 64 10 98 7 39 7 70 2
80 -6 10 -4 24 6 39 14 21 14 28 -1 74 -13 40 -16 69 -10 131 6 73 5 81 -16
103 -14 15 -24 41 -27 72 -4 44 -11 53 -71 111 -36 34 -69 62 -73 62 -3 0 -4
19 -2 43 5 41 3 45 -35 75 -58 46 -128 75 -164 68 -16 -3 -38 -1 -48 4 -26 14
-127 19 -175 9z"/>
<path d="M12715 6396 c-28 -12 -61 -29 -75 -38 -13 -10 -29 -18 -35 -18 -5 0
-21 -9 -35 -20 -14 -11 -30 -20 -36 -20 -6 0 -37 -15 -69 -34 -31 -19 -71 -38
-88 -41 -28 -5 -116 -42 -157 -66 -22 -13 -30 -16 -93 -30 -32 -7 -60 -16 -63
-21 -3 -4 -15 -6 -28 -2 -14 3 -27 -1 -35 -10 -8 -9 -27 -16 -44 -16 -17 0
-44 -4 -61 -9 -56 -17 -125 -28 -136 -21 -5 3 -34 2 -63 -2 -28 -5 -63 -9 -77
-9 -14 0 -35 -5 -47 -11 -17 -8 -26 -8 -36 1 -8 6 -43 16 -78 21 -35 5 -89 14
-119 19 -45 9 -56 8 -63 -4 -4 -8 -14 -12 -22 -8 -9 3 -28 0 -43 -6 -31 -13
-52 -66 -52 -128 1 -99 137 -156 405 -168 44 -2 114 -6 155 -8 41 -2 104 0
140 5 36 5 90 11 120 13 86 6 185 28 350 79 47 15 89 26 94 26 5 0 17 6 25 13
9 7 35 20 59 27 24 7 47 21 52 29 5 9 14 16 22 17 7 0 23 2 35 2 12 1 32 13
45 26 13 13 38 26 57 30 21 4 49 21 73 46 22 22 48 40 59 40 32 0 88 62 104
115 12 41 12 56 0 100 -7 29 -24 64 -37 78 -22 23 -32 26 -89 25 -40 -1 -83
-9 -114 -22z"/>
<path d="M18640 14174 c0 -8 5 -12 10 -9 6 4 8 11 5 16 -9 14 -15 11 -15 -7z"/>
<path d="M18555 14121 c-22 -11 -48 -21 -58 -25 -9 -3 -22 -18 -28 -33 -5 -16
-19 -35 -29 -43 -16 -12 -20 -29 -22 -81 -1 -55 3 -74 24 -110 15 -25 39 -51
55 -59 15 -8 34 -19 41 -24 42 -31 159 -8 183 35 5 11 18 19 29 19 25 0 70 95
70 149 0 39 -18 77 -70 144 -16 20 -30 27 -55 27 -19 0 -37 5 -40 10 -9 15
-56 11 -100 -9z"/>
<path d="M18763 13730 c-18 -4 -44 -15 -59 -25 -21 -14 -38 -16 -83 -10 -31 4
-61 11 -66 15 -6 5 -35 2 -65 -5 -30 -8 -82 -18 -115 -22 -41 -6 -59 -12 -57
-21 2 -9 -4 -11 -17 -7 -13 4 -20 0 -24 -15 -4 -15 -13 -20 -37 -20 -23 0 -33
-5 -37 -20 -3 -11 -12 -20 -19 -20 -8 0 -14 -7 -14 -15 0 -9 -9 -15 -25 -15
-14 0 -25 -4 -25 -10 0 -5 -7 -10 -15 -10 -8 0 -22 -16 -31 -35 -9 -19 -31
-48 -50 -65 -19 -16 -34 -36 -34 -43 0 -8 -16 -30 -35 -50 -19 -20 -35 -39
-35 -43 0 -4 -10 -18 -22 -31 -15 -16 -22 -35 -21 -61 1 -41 -15 -78 -46 -106
-12 -11 -21 -29 -21 -40 0 -12 -12 -46 -26 -76 -19 -41 -24 -64 -20 -91 4 -26
2 -38 -8 -42 -29 -12 -35 -147 -7 -180 10 -13 11 -24 2 -47 -10 -29 -8 -32 19
-48 17 -10 30 -25 30 -36 0 -11 5 -34 12 -52 10 -29 15 -32 40 -27 23 5 35 -2
74 -41 51 -52 71 -53 76 -4 2 24 10 36 31 46 15 7 27 20 27 28 0 11 8 14 28
12 21 -2 28 -9 30 -30 3 -26 22 -41 22 -17 0 5 5 7 10 4 6 -3 10 -15 10 -27 0
-11 17 -43 37 -70 37 -51 37 -51 54 -29 24 29 40 26 64 -12 21 -33 64 -49 67
-25 0 7 2 18 2 24 2 16 26 44 39 44 16 0 36 33 37 60 0 14 7 36 15 50 8 14 14
40 15 58 0 18 5 43 12 55 7 12 13 49 15 82 6 129 8 152 20 166 14 17 22 93 27
262 4 117 8 139 25 121 21 -21 32 -505 13 -512 -8 -2 -12 -31 -12 -82 0 -43
-5 -91 -10 -106 -9 -24 -7 -32 18 -63 16 -20 37 -38 46 -39 10 -2 27 -13 38
-24 18 -18 19 -24 9 -41 -9 -14 -10 -22 -2 -30 6 -6 11 -21 11 -34 0 -24 23
-32 36 -12 3 6 15 9 25 6 10 -3 23 1 30 9 15 19 25 18 33 -3 3 -10 9 -24 12
-30 4 -8 -2 -13 -15 -13 -23 0 -29 -25 -8 -33 18 -7 67 35 67 57 0 10 8 16 23
16 13 0 31 8 39 18 17 19 54 113 50 126 -1 4 2 14 8 21 14 17 20 256 7 273 -7
8 -7 20 0 35 11 24 3 163 -11 185 -4 8 -8 43 -8 80 0 36 -4 74 -9 83 -11 22 0
81 15 76 6 -2 10 -14 8 -26 -2 -11 6 -33 17 -47 12 -15 21 -38 21 -52 0 -14 8
-31 18 -38 12 -8 17 -27 18 -61 2 -69 9 -95 49 -186 9 -20 13 -42 9 -48 -3 -6
-2 -21 4 -32 6 -12 13 -39 17 -61 6 -34 9 -38 31 -33 16 3 28 -1 34 -12 5 -10
22 -16 41 -16 26 0 36 -6 49 -30 8 -16 21 -35 28 -43 6 -7 12 -22 12 -33 0
-21 8 -23 29 -10 8 5 11 16 8 24 -8 20 3 29 20 16 10 -9 17 -8 28 1 12 10 18
10 30 0 8 -7 15 -19 15 -26 0 -8 10 -14 25 -14 50 0 87 138 60 227 -13 41 -13
50 0 70 20 30 19 43 -3 43 -16 0 -17 6 -12 48 7 59 -28 159 -55 154 -13 -3
-16 5 -14 43 2 25 -3 51 -9 57 -7 7 -12 21 -12 33 -1 26 -23 55 -44 55 -19 0
-20 4 -4 29 10 16 8 28 -13 68 -37 74 -78 132 -110 155 -16 12 -29 28 -29 35
0 8 -7 28 -16 44 -12 24 -20 30 -38 25 -18 -4 -24 0 -32 27 -7 25 -15 33 -37
35 -18 2 -40 19 -64 48 -41 48 -114 80 -161 71 -15 -3 -38 1 -52 8 -28 16 -49
17 -97 5z m217 -520 c0 -5 -4 -10 -10 -10 -5 0 -10 5 -10 10 0 6 5 10 10 10 6
0 10 -4 10 -10z m-880 -680 c0 -5 -4 -10 -10 -10 -5 0 -10 5 -10 10 0 6 5 10
10 10 6 0 10 -4 10 -10z"/>
</g>
</svg>
